<svg width="1000" height="1000" viewBox="0 0 1000 1000" fill="none" xmlns="http://www.w3.org/2000/svg">
<path d="M514.656 104.813V45.9062C514.656 42.0192 513.112 38.2913 510.364 35.5427C507.615 32.7941 503.887 31.25 500 31.25C496.113 31.25 492.385 32.7941 489.636 35.5427C486.888 38.2913 485.344 42.0192 485.344 45.9062V104.813C262.203 111.344 77.4531 266.453 31.25 472.328C45.3884 457.793 62.3065 446.251 80.9973 438.388C99.6882 430.526 119.77 426.504 140.047 426.562C163.221 426.486 186.102 431.751 206.913 441.948C227.724 452.145 245.905 466.999 260.047 485.359C274.179 466.997 292.355 452.141 313.161 441.943C333.968 431.746 356.845 426.483 380.016 426.562C421.219 426.562 458.297 442.969 485.359 469.203V763.672H470.703V851.562C470.682 867.096 464.503 881.988 453.519 892.972C442.535 903.956 427.643 910.136 412.109 910.156C396.577 910.131 381.688 903.95 370.705 892.967C359.722 881.984 353.54 867.095 353.516 851.562C353.516 843.792 350.429 836.341 344.935 830.846C339.441 825.352 331.989 822.266 324.219 822.266C316.449 822.266 308.997 825.352 303.503 830.846C298.009 836.341 294.922 843.792 294.922 851.562C294.922 916.188 347.5 968.75 412.109 968.75C476.75 968.75 529.297 916.188 529.297 851.562V763.672H514.641V469.203C542.852 441.797 580.653 426.496 619.984 426.562C643.159 426.484 666.041 431.748 686.852 441.945C707.663 452.142 725.845 466.998 739.984 485.359C754.123 466.996 772.303 452.139 793.115 441.941C813.927 431.744 836.809 426.482 859.984 426.562C880.257 426.504 900.334 430.526 919.02 438.388C937.705 446.251 954.618 457.793 968.75 472.328C922.578 266.453 737.828 111.344 514.656 104.813Z" fill="#F9F9F9"/>
</svg>
